<?xml version="1.0" standalone="no"?>
<!DOCTYPE svg PUBLIC "-//W3C//DTD SVG 20010904//EN"
 "http://www.w3.org/TR/2001/REC-SVG-20010904/DTD/svg10.dtd">
<svg version="1.0" xmlns="http://www.w3.org/2000/svg"
 width="737.000000pt" height="737.000000pt" viewBox="0 0 737.000000 737.000000"
 preserveAspectRatio="xMidYMid meet">
<metadata>
Created by potrace 1.14, written by Peter Selinger 2001-2017
</metadata>
<g transform="translate(0.000000,737.000000) scale(0.100000,-0.100000)"
fill="#000000" stroke="none">
<path d="M2350 6170 c-729 -462 -1337 -850 -1352 -861 l-28 -20 0 -1449 0
-1450 -296 -2 c-260 -3 -298 -5 -307 -19 -6 -9 -7 -24 -4 -33 6 -14 38 -16
307 -16 l300 0 0 -100 0 -100 -432 0 c-238 0 -439 -4 -446 -9 -8 -4 -12 -19
-10 -32 l3 -24 443 0 442 0 0 -97 0 -98 -302 -2 -303 -3 -3 -24 c-2 -13 2 -28
10 -32 7 -5 145 -9 306 -9 l292 0 0 -195 0 -195 443 0 442 0 910 -525 c501
-289 917 -525 925 -525 8 0 425 236 925 525 l910 525 443 0 442 0 0 195 0 195
293 0 c160 0 298 4 305 9 8 4 12 19 10 32 l-3 24 -302 3 -303 2 0 98 0 97 442
0 443 0 3 24 c2 13 -2 28 -10 32 -7 5 -208 9 -445 9 l-433 0 0 100 0 100 300
0 c269 0 301 2 307 16 3 9 2 24 -4 33 -9 14 -47 16 -307 19 l-296 2 0 1449 c0
1366 -1 1449 -17 1463 -37 32 -2678 1702 -2697 1705 -14 3 -451 -269 -1346
-837z m2673 -80 l1317 -835 0 -1237 0 -1238 -2650 0 -2650 0 0 1238 0 1237
1318 837 c724 460 1324 836 1333 835 9 -1 609 -378 1332 -837z m1317 -4000 l0
-620 -2650 0 -2650 0 0 620 0 620 2650 0 2650 0 0 -620z m-3453 -1070 c372
-210 683 -380 691 -378 26 5 39 36 22 52 -8 8 -292 170 -630 360 l-615 346
1320 0 c744 0 1315 -4 1309 -9 -5 -4 -265 -158 -578 -341 -312 -184 -578 -341
-590 -351 -17 -14 -19 -21 -10 -36 6 -10 18 -19 26 -21 8 -2 307 168 663 378
l649 381 115 -3 116 -3 -837 -482 c-460 -266 -842 -483 -848 -483 -11 0 -1656
944 -1674 961 -6 5 35 9 93 9 l103 0 675 -380z"/>
<path d="M3479 6603 c-42 -27 -536 -345 -1098 -708 -939 -607 -1021 -662
-1019 -685 2 -16 10 -26 23 -28 13 -2 421 256 1110 701 1114 720 1128 730
1083 758 -19 12 -16 13 -99 -38z"/>
<path d="M3802 6638 c-7 -7 -12 -20 -12 -29 0 -22 2164 -1422 2200 -1423 20
-1 26 5 28 25 3 23 -74 75 -1091 732 -602 389 -1099 707 -1104 707 -5 0 -14
-5 -21 -12z"/>
<path d="M3950 5740 c-11 -11 -20 -27 -20 -35 0 -18 35 -55 53 -55 24 0 57 31
57 55 0 24 -33 55 -57 55 -7 0 -22 -9 -33 -20z"/>
<path d="M3942 5614 c-47 -33 -9 -107 46 -88 49 17 38 104 -13 104 -6 0 -21
-7 -33 -16z"/>
<path d="M3930 5470 c-12 -12 -20 -33 -20 -55 0 -45 29 -75 74 -75 48 0 78 27
79 72 1 51 -25 78 -75 78 -25 0 -45 -7 -58 -20z"/>
<path d="M4005 5311 c-11 -5 -28 -18 -38 -28 -88 -98 26 -248 143 -188 42 22
60 53 60 105 0 25 -7 56 -16 68 -30 44 -98 63 -149 43z"/>
<path d="M4402 5203 c-99 -100 -124 -148 -130 -253 -3 -61 0 -89 20 -147 14
-40 24 -73 23 -73 -1 0 -21 30 -45 66 -60 91 -171 200 -272 267 -98 65 -166
97 -287 134 -79 25 -100 27 -266 27 -191 0 -273 -14 -377 -63 l-43 -21 55 8
c30 4 125 7 210 6 133 -1 169 -5 252 -27 240 -64 464 -219 597 -415 50 -75 96
-167 111 -222 6 -25 14 -54 17 -65 3 -11 -14 6 -38 39 -81 108 -253 226 -434
298 -82 32 -63 37 28 7 74 -24 166 -77 276 -159 96 -71 101 -64 41 59 -71 146
-198 251 -341 282 -39 8 -75 8 -146 -1 -52 -7 -121 -10 -153 -7 -70 6 -72 2
-30 -68 171 -285 219 -321 483 -355 128 -16 187 -41 263 -112 l64 -60 0 -78
c0 -44 -5 -91 -10 -106 -6 -15 -15 -61 -21 -103 -23 -177 -124 -369 -261 -496
-77 -71 -229 -153 -333 -179 -310 -78 -649 3 -818 195 -57 64 -111 171 -127
254 -32 156 45 319 182 388 132 66 259 72 412 19 112 -38 184 -82 265 -160
l66 -62 -87 50 c-237 138 -441 175 -580 107 -157 -77 -157 -201 0 -325 151
-118 331 -177 478 -154 40 6 98 23 131 38 110 49 259 67 362 43 24 -5 45 -8
47 -6 8 8 -39 144 -73 212 -105 210 -270 379 -454 465 -388 181 -815 -6 -925
-405 -18 -65 -18 -222 1 -309 16 -74 57 -170 99 -233 76 -111 245 -241 401
-305 133 -56 224 -72 390 -71 168 0 277 22 409 82 283 128 510 398 586 698 11
42 21 77 23 78 1 0 42 18 90 40 185 81 225 131 301 386 27 90 32 129 17 129
-5 0 -26 -7 -47 -16 -22 -9 -84 -23 -139 -30 -75 -10 -116 -22 -166 -47 l-66
-33 -11 55 c-34 169 -25 221 58 351 73 114 83 144 78 228 -5 67 -53 243 -66
241 -4 -1 -45 -40 -90 -86z m-9 -263 c-20 -67 -26 -109 -27 -197 0 -61 -2
-110 -2 -110 -1 1 -12 22 -24 47 -17 34 -19 41 -6 31 14 -12 16 -9 16 26 0 57
27 205 46 253 26 65 25 42 -3 -50z m226 -624 c-20 -19 -155 -113 -158 -110 -8
8 33 42 93 78 53 32 77 44 65 32z"/>
<path d="M2859 5161 c-21 -22 -29 -39 -29 -66 0 -27 8 -44 29 -66 22 -21 39
-29 66 -29 51 0 95 44 95 95 0 51 -44 95 -95 95 -27 0 -44 -8 -66 -29z"/>
<path d="M1201 5026 c-8 -10 -10 -264 -9 -942 l3 -929 24 -3 c13 -2 28 2 32
10 5 7 9 428 9 935 0 902 0 923 -19 933 -25 13 -26 13 -40 -4z"/>
<path d="M6138 5029 c-17 -9 -18 -64 -18 -932 0 -507 4 -928 9 -935 4 -8 19
-12 32 -10 l24 3 3 929 c2 907 1 957 -27 956 -3 0 -14 -5 -23 -11z"/>
<path d="M2729 5020 c-25 -15 -32 -58 -14 -86 11 -18 25 -24 50 -24 41 0 65
22 65 59 0 49 -56 77 -101 51z"/>
<path d="M2656 4874 c-22 -21 -20 -51 4 -64 45 -24 82 15 55 56 -18 28 -37 30
-59 8z"/>
<path d="M2586 4754 c-9 -8 -16 -21 -16 -28 0 -15 32 -46 48 -46 15 0 42 29
42 45 0 7 -7 21 -16 29 -8 9 -22 16 -29 16 -7 0 -21 -7 -29 -16z"/>
<path d="M3030 2424 c-18 -48 -62 -129 -97 -182 -35 -52 -62 -99 -61 -104 2
-5 22 4 45 21 l42 30 3 -190 c4 -241 -6 -229 177 -228 152 0 195 12 199 53 2
19 -2 32 -12 38 -12 7 -16 24 -16 64 0 68 -17 69 -37 2 -18 -64 -28 -69 -125
-66 l-83 3 -3 168 -2 167 60 0 61 0 -3 -77 -3 -78 -42 -3 c-49 -4 -54 -14 -18
-30 16 -8 28 -23 32 -43 6 -29 8 -30 42 -24 67 12 90 59 91 187 0 43 4 60 18
67 16 10 16 12 -2 26 -17 13 -18 15 -3 15 26 0 50 45 42 77 -9 36 -74 98 -119
113 -20 6 -34 16 -30 21 5 8 -93 59 -114 59 -5 0 -23 -39 -42 -86z m190 -116
c14 -26 17 -36 7 -33 -7 3 -22 -3 -32 -15 -14 -16 -30 -20 -76 -20 -93 0 -95
4 -45 69 24 31 49 67 56 80 l13 25 28 -35 c15 -19 37 -51 49 -71z"/>
<path d="M3518 2179 l-3 -334 -62 2 c-49 1 -63 -2 -63 -13 0 -8 8 -14 19 -14
30 0 71 -39 71 -67 0 -24 2 -25 37 -20 55 9 87 37 95 83 4 21 7 177 7 347 1
197 5 307 11 307 6 0 10 7 10 15 0 11 -11 15 -37 15 -21 0 -48 3 -60 6 l-23 6
-2 -333z"/>
<path d="M4030 2431 l0 -81 -130 0 c-109 0 -130 -2 -130 -15 0 -13 21 -15 130
-15 l130 0 0 -70 0 -70 -166 0 c-128 0 -165 -3 -162 -12 3 -9 44 -14 136 -18
l132 -5 -46 -80 c-32 -54 -77 -111 -141 -174 -52 -51 -91 -96 -88 -99 20 -20
234 123 299 199 l36 43 0 -152 c0 -169 -2 -165 69 -141 l31 11 0 186 0 186 40
-83 c26 -53 60 -104 97 -142 51 -54 120 -107 127 -98 1 2 7 17 14 32 7 15 25
36 42 45 16 9 30 19 30 22 -1 3 -41 24 -91 48 -71 34 -106 59 -160 112 -38 38
-69 74 -69 80 0 6 53 10 149 10 83 0 152 4 155 9 3 5 -19 28 -50 52 l-56 43
-30 -37 -30 -37 -84 0 -84 0 0 70 0 70 134 0 c75 0 137 4 141 10 5 8 -89 90
-103 90 -4 0 -18 -16 -32 -35 -23 -32 -29 -34 -82 -35 l-58 0 0 55 c0 40 4 57
15 61 8 4 15 12 15 20 0 10 -13 14 -42 14 -24 0 -53 3 -65 6 -22 6 -23 4 -23
-75z"/>
<path d="M4840 2441 l0 -71 -145 0 c-124 0 -144 -2 -139 -15 5 -12 31 -15 145
-15 l139 0 0 -105 0 -105 -160 0 c-136 0 -160 -2 -160 -15 0 -13 21 -15 131
-15 149 0 144 6 82 -88 -42 -63 -147 -172 -193 -199 -17 -9 -30 -23 -30 -30 0
-17 1 -17 63 11 76 33 160 89 218 143 l49 46 0 -128 0 -128 40 6 c69 9 70 11
70 181 l0 151 28 -53 c39 -74 105 -148 168 -188 29 -19 57 -34 61 -34 5 0 14
14 22 31 7 17 24 35 37 41 27 13 32 38 8 38 -42 0 -183 80 -245 138 l-64 61
157 1 c86 0 159 4 162 9 3 5 -20 28 -51 51 l-56 43 -30 -36 c-28 -35 -32 -37
-89 -37 l-61 0 39 29 c21 16 53 43 69 61 17 17 40 36 53 41 12 5 22 13 22 17
0 10 -94 52 -115 52 -12 0 -81 -164 -79 -187 1 -7 -7 -13 -17 -13 -17 0 -19 9
-19 105 l0 105 149 0 c83 0 152 4 155 9 3 5 -19 27 -49 50 l-55 42 -25 -28
c-13 -15 -25 -31 -25 -35 0 -5 -34 -8 -75 -8 l-75 0 0 45 c0 31 5 47 15 51 31
12 16 34 -24 34 -21 0 -53 3 -70 6 l-31 7 0 -72z"/>
<path d="M2710 2475 l-23 -25 -244 0 c-187 0 -250 3 -271 14 -15 7 -37 17 -49
20 l-23 7 0 -380 c0 -364 1 -381 19 -381 39 0 81 22 87 46 l6 24 239 0 239 0
0 -30 c0 -27 3 -30 30 -30 16 0 41 5 55 12 l25 11 0 315 c0 288 1 316 18 328
16 13 14 16 -18 44 -58 50 -65 52 -90 25z m-460 -160 c0 -88 -1 -95 -20 -95
-19 0 -20 7 -20 95 0 88 1 95 20 95 19 0 20 -7 20 -95z m324 80 c-8 -21 -237
-21 -274 0 -23 13 -10 14 127 15 131 0 152 -2 147 -15z m116 -80 c0 -93 -1
-95 -20 -83 -15 10 -20 24 -20 58 0 25 5 51 12 58 6 6 10 13 7 15 -2 2 -17 13
-33 25 l-29 22 42 0 41 0 0 -95z m-320 0 c0 -28 -4 -35 -20 -35 -16 0 -20 7
-20 35 0 28 4 35 20 35 16 0 20 -7 20 -35z m90 0 c0 -19 -4 -35 -10 -35 -5 0
-10 16 -10 35 0 19 5 35 10 35 6 0 10 -16 10 -35z m110 0 c0 -24 -5 -35 -15
-35 -10 0 -15 11 -15 35 0 24 5 35 15 35 10 0 15 -11 15 -35z m6 -80 c14 -13
0 -15 -126 -15 -123 0 -139 2 -128 15 19 21 233 21 254 0z m-306 -136 l0 -91
33 6 c31 6 32 6 10 -9 -22 -15 -86 -45 -98 -45 -3 0 -5 52 -5 115 l0 115 30 0
30 0 0 -91z m280 76 c-17 -20 -182 -20 -225 0 -27 12 -18 13 104 14 118 1 132
-1 121 -14z m140 -81 l0 -95 -30 18 c-26 15 -30 23 -30 60 0 23 5 45 12 49 8
5 0 17 -22 36 l-34 28 52 0 52 0 0 -96z m-150 11 c0 -25 -1 -25 -90 -25 -89 0
-90 0 -90 25 0 25 1 25 90 25 89 0 90 0 90 -25z m6 -79 c8 -8 10 -17 6 -20
-13 -8 -92 15 -86 25 8 14 64 10 80 -5z m-39 -80 c39 -30 77 -66 87 -80 18
-28 44 -34 64 -14 21 21 13 58 -18 89 l-29 30 25 9 c51 20 54 16 54 -70 l0
-80 -167 0 -167 0 69 43 c81 50 96 73 41 63 -21 -4 -44 -10 -52 -13 -10 -4
-14 4 -14 29 0 65 18 64 107 -6z m-202 -36 c-15 -17 -15 -21 0 -49 l16 -31
-56 0 -55 0 0 49 0 48 53 14 c43 12 53 12 55 1 2 -7 -4 -22 -13 -32z"/>
<path d="M3360 2166 c0 -268 -3 -256 59 -235 l31 11 0 210 c0 189 2 212 17
224 25 17 16 22 -50 30 l-57 7 0 -247z"/>
<path d="M4665 2268 c12 -35 27 -76 32 -93 17 -59 103 -37 103 26 0 35 -41 84
-91 109 -65 34 -70 29 -44 -42z"/>
</g>
</svg>
